<svg xmlns="http://www.w3.org/2000/svg" xmlns:xlink="http://www.w3.org/1999/xlink" width="500" zoomAndPan="magnify" viewBox="0 0 375 374.999991" height="500" preserveAspectRatio="xMidYMid meet" version="1.0"><defs><g/><clipPath id="dd0667e46a"><path d="M 150 207 L 225 207 L 225 212.65625 L 150 212.65625 Z M 150 207 " clip-rule="nonzero"/></clipPath><clipPath id="dde29992b6"><path d="M 124.34375 111 L 250.34375 111 L 250.34375 204 L 124.34375 204 Z M 124.34375 111 " clip-rule="nonzero"/></clipPath></defs><g clip-path="url(#dd0667e46a)"><path fill="#d9d9d9" d="M 222.464844 207.957031 L 152.546875 207.957031 C 151.417969 207.957031 150.488281 208.886719 150.488281 210.011719 C 150.488281 211.140625 151.417969 212.070312 152.546875 212.070312 L 222.464844 212.070312 C 223.59375 212.070312 224.523438 211.140625 224.523438 210.011719 C 224.523438 208.886719 223.59375 207.957031 222.464844 207.957031 Z M 222.464844 207.957031 " fill-opacity="1" fill-rule="evenodd"/></g><g clip-path="url(#dde29992b6)"><path fill="#ffffff" d="M 179.554688 158.472656 C 179.554688 159.445312 178.757812 160.242188 177.785156 160.242188 L 171.589844 160.242188 C 170.617188 160.242188 169.820312 159.445312 169.820312 158.472656 C 169.820312 157.5 170.617188 156.703125 171.589844 156.703125 L 177.785156 156.703125 C 178.757812 156.703125 179.554688 157.5 179.554688 158.472656 Z M 177.738281 151.925781 L 171.546875 151.925781 C 170.574219 151.925781 169.777344 151.128906 169.777344 150.15625 C 169.777344 149.183594 170.574219 148.386719 171.546875 148.386719 L 177.738281 148.386719 C 178.710938 148.386719 179.507812 149.183594 179.507812 150.15625 C 179.507812 151.128906 178.710938 151.925781 177.738281 151.925781 Z M 177.695312 143.609375 L 171.5 143.609375 C 170.527344 143.609375 169.730469 142.8125 169.730469 141.839844 C 169.730469 140.867188 170.527344 140.070312 171.5 140.070312 L 177.695312 140.070312 C 178.667969 140.070312 179.464844 140.867188 179.464844 141.839844 C 179.464844 142.8125 178.667969 143.609375 177.695312 143.609375 Z M 177.652344 135.292969 L 171.457031 135.292969 C 170.484375 135.292969 169.6875 134.496094 169.6875 133.523438 C 169.6875 132.550781 170.484375 131.753906 171.457031 131.753906 L 177.652344 131.753906 C 178.625 131.753906 179.421875 132.550781 179.421875 133.523438 C 179.421875 134.496094 178.625 135.292969 177.652344 135.292969 Z M 177.871094 181.699219 C 178.84375 181.699219 179.640625 182.496094 179.640625 183.46875 C 179.640625 184.441406 178.84375 185.238281 177.871094 185.238281 L 171.679688 185.238281 C 170.707031 185.238281 169.910156 184.441406 169.910156 183.46875 C 169.910156 182.496094 170.707031 181.699219 171.679688 181.699219 Z M 171.699219 190.015625 L 177.894531 190.015625 C 178.867188 190.015625 179.664062 190.8125 179.664062 191.785156 C 179.664062 192.757812 178.867188 193.554688 177.894531 193.554688 L 171.699219 193.554688 C 170.726562 193.554688 169.929688 192.757812 169.929688 191.785156 C 169.929688 190.8125 170.726562 190.015625 171.699219 190.015625 Z M 179.597656 175.128906 C 179.597656 176.101562 178.800781 176.898438 177.828125 176.898438 L 171.632812 176.898438 C 170.660156 176.898438 169.863281 176.101562 169.863281 175.128906 C 169.863281 174.15625 170.660156 173.359375 171.632812 173.359375 L 177.828125 173.359375 C 178.800781 173.359375 179.597656 174.15625 179.597656 175.128906 Z M 177.785156 168.582031 L 171.589844 168.582031 C 170.617188 168.582031 169.820312 167.785156 169.820312 166.8125 C 169.820312 165.839844 170.617188 165.042969 171.589844 165.042969 L 177.785156 165.042969 C 178.757812 165.042969 179.554688 165.839844 179.554688 166.8125 C 179.554688 167.785156 178.757812 168.582031 177.785156 168.582031 Z M 189.53125 187.339844 L 189.53125 179.640625 L 209.238281 191.875 L 209.238281 199.351562 L 208.90625 199.351562 Z M 213.351562 199.351562 L 213.351562 165 L 231.445312 174.199219 L 231.445312 199.351562 Z M 161.59375 149.316406 L 161.59375 199.351562 L 143.496094 199.351562 L 143.496094 158.519531 Z M 126.378906 203.464844 L 248.566406 203.464844 C 249.695312 203.464844 250.625 202.535156 250.625 201.410156 C 250.625 200.28125 249.695312 199.351562 248.566406 199.351562 L 235.5625 199.351562 L 235.5625 172.941406 C 235.5625 172.164062 235.117188 171.457031 234.433594 171.105469 L 231.667969 169.6875 L 213.351562 160.375 L 213.351562 128.035156 C 213.351562 127.328125 212.976562 126.664062 212.378906 126.289062 L 188.554688 111.511719 C 188.535156 111.511719 188.511719 111.492188 188.488281 111.492188 C 188.355469 111.425781 188.222656 111.359375 188.089844 111.3125 C 188.046875 111.292969 188.003906 111.292969 187.980469 111.269531 C 187.828125 111.226562 187.648438 111.203125 187.472656 111.203125 C 187.296875 111.203125 187.140625 111.226562 186.964844 111.269531 C 186.917969 111.292969 186.875 111.292969 186.851562 111.3125 C 186.71875 111.359375 186.585938 111.425781 186.453125 111.492188 C 186.433594 111.492188 186.410156 111.511719 186.386719 111.511719 L 162.566406 126.289062 C 161.96875 126.664062 161.59375 127.328125 161.59375 128.035156 L 161.59375 144.691406 L 151.0625 150.046875 L 140.535156 155.398438 C 139.847656 155.753906 139.40625 156.460938 139.40625 157.234375 L 139.40625 199.328125 L 126.398438 199.328125 C 125.269531 199.328125 124.34375 200.257812 124.34375 201.386719 C 124.34375 202.515625 125.269531 203.445312 126.398438 203.445312 Z M 209.238281 174.488281 L 189.53125 162.257812 L 189.53125 154.558594 L 209.238281 166.789062 Z M 209.238281 161.945312 L 189.53125 149.714844 L 189.53125 142.015625 L 209.238281 154.25 Z M 209.238281 149.40625 L 189.53125 137.171875 L 189.53125 129.472656 L 209.238281 141.707031 Z M 209.238281 187.007812 L 189.53125 174.777344 L 189.53125 167.078125 L 209.238281 179.3125 Z M 189.53125 199.328125 L 189.53125 192.164062 L 201.097656 199.328125 Z M 209.238281 136.863281 L 189.53125 124.628906 L 189.53125 116.933594 L 209.238281 129.164062 Z M 209.238281 136.863281 " fill-opacity="1" fill-rule="evenodd"/></g><path fill="#d9d9d9" d="M 217.421875 172.519531 L 217.421875 194.925781 C 217.421875 195.769531 218.109375 196.476562 218.972656 196.476562 C 219.832031 196.476562 220.519531 195.789062 220.519531 194.925781 L 220.519531 172.519531 C 220.519531 171.65625 219.832031 170.972656 218.972656 170.972656 C 218.128906 170.972656 217.421875 171.65625 217.421875 172.519531 Z M 217.421875 172.519531 " fill-opacity="1" fill-rule="evenodd"/><path fill="#d9d9d9" d="M 224.324219 179.023438 L 224.324219 194.925781 C 224.324219 195.769531 225.011719 196.476562 225.871094 196.476562 C 226.734375 196.476562 227.421875 195.789062 227.421875 194.925781 L 227.421875 179.023438 C 227.421875 178.160156 226.734375 177.476562 225.871094 177.476562 C 225.03125 177.476562 224.324219 178.160156 224.324219 179.023438 Z M 224.324219 179.023438 " fill-opacity="1" fill-rule="evenodd"/><path fill="#d9d9d9" d="M 157.566406 194.925781 L 157.566406 157.324219 C 157.566406 156.460938 156.878906 155.773438 156.019531 155.773438 C 155.175781 155.773438 154.46875 156.460938 154.46875 157.324219 L 154.46875 194.925781 C 154.46875 195.769531 155.15625 196.476562 156.019531 196.476562 C 156.878906 196.476562 157.566406 195.789062 157.566406 194.925781 Z M 157.566406 194.925781 " fill-opacity="1" fill-rule="evenodd"/><path fill="#d9d9d9" d="M 150.664062 194.925781 L 150.664062 163.847656 C 150.664062 162.984375 149.980469 162.300781 149.117188 162.300781 C 148.277344 162.300781 147.566406 162.984375 147.566406 163.847656 L 147.566406 194.925781 C 147.566406 195.769531 148.253906 196.476562 149.117188 196.476562 C 149.957031 196.476562 150.664062 195.789062 150.664062 194.925781 Z M 150.664062 194.925781 " fill-opacity="1" fill-rule="evenodd"/><g fill="#ffffff" fill-opacity="1"><g transform="translate(136.17683, 242.528948)"><g><path d="M 2.171875 0 L 5.082031 0 L 5.082031 -12.605469 L 9.253906 -1.46875 L 12.191406 -1.46875 L 16.363281 -12.605469 L 16.363281 0 L 19.273438 0 L 19.273438 -16.855469 L 15.195312 -16.855469 L 10.722656 -4.867188 L 6.25 -16.855469 L 2.171875 -16.855469 Z M 2.171875 0 "/></g></g></g><g fill="#ffffff" fill-opacity="1"><g transform="translate(161.79512, 242.528948)"><g><path d="M 9.113281 0.238281 C 14.683594 0.238281 17.246094 -3.839844 17.246094 -8.433594 C 17.246094 -13.023438 14.683594 -17.105469 9.113281 -17.105469 C 3.542969 -17.105469 0.976562 -13.023438 0.976562 -8.433594 C 0.976562 -3.839844 3.542969 0.238281 9.113281 0.238281 Z M 9.113281 -2.445312 C 5.5 -2.445312 4.175781 -5.25 4.175781 -8.433594 C 4.175781 -11.605469 5.5 -14.410156 9.113281 -14.410156 C 12.726562 -14.410156 14.050781 -11.605469 14.050781 -8.433594 C 14.050781 -5.25 12.726562 -2.445312 9.113281 -2.445312 Z M 9.113281 -2.445312 "/></g></g></g><g fill="#ffffff" fill-opacity="1"><g transform="translate(184.19373, 242.528948)"><g><path d="M 2.171875 0.0234375 L 5.199219 0.0234375 L 5.199219 -7.203125 L 7.226562 -7.203125 L 11.378906 0.0234375 L 14.851562 0.0234375 L 10.164062 -7.503906 C 12.070312 -8.160156 13.453125 -9.769531 13.453125 -11.890625 C 13.453125 -15.050781 10.769531 -16.855469 7.621094 -16.855469 L 2.171875 -16.855469 Z M 5.222656 -9.671875 L 5.222656 -14.144531 L 7.644531 -14.144531 C 9.375 -14.144531 10.460938 -13.238281 10.460938 -11.84375 C 10.460938 -10.578125 9.507812 -9.746094 7.894531 -9.671875 Z M 5.222656 -9.671875 "/></g></g></g><g fill="#ffffff" fill-opacity="1"><g transform="translate(203.491906, 242.528948)"><g><path d="M 2.171875 0.0234375 L 5.199219 0.0234375 L 5.199219 -7.203125 L 7.226562 -7.203125 L 11.378906 0.0234375 L 14.851562 0.0234375 L 10.164062 -7.503906 C 12.070312 -8.160156 13.453125 -9.769531 13.453125 -11.890625 C 13.453125 -15.050781 10.769531 -16.855469 7.621094 -16.855469 L 2.171875 -16.855469 Z M 5.222656 -9.671875 L 5.222656 -14.144531 L 7.644531 -14.144531 C 9.375 -14.144531 10.460938 -13.238281 10.460938 -11.84375 C 10.460938 -10.578125 9.507812 -9.746094 7.894531 -9.671875 Z M 5.222656 -9.671875 "/></g></g></g><g fill="#ffffff" fill-opacity="1"><g transform="translate(222.790083, 242.528948)"><g><path d="M 0.144531 0 L 3.445312 0 L 4.757812 -3.660156 L 11.308594 -3.660156 L 12.605469 0 L 15.875 0 L 9.160156 -16.855469 L 6.894531 -16.855469 Z M 5.785156 -6.25 L 8.039062 -12.40625 L 10.28125 -6.25 Z M 5.785156 -6.25 "/></g></g></g><g fill="#d9d9d9" fill-opacity="1"><g transform="translate(111.483671, 260.361819)"><g><path d="M 4.46875 0.117188 C 6.105469 0.117188 7.417969 -0.71875 8.070312 -2.257812 L 6.699219 -2.816406 C 6.257812 -1.707031 5.527344 -1.289062 4.46875 -1.289062 C 2.699219 -1.289062 1.949219 -2.542969 1.949219 -4.179688 C 1.949219 -5.710938 2.699219 -6.964844 4.445312 -6.964844 C 5.515625 -6.964844 6.367188 -6.542969 6.675781 -5.457031 L 8.058594 -6.007812 C 7.394531 -7.546875 6.089844 -8.375 4.457031 -8.375 C 1.742188 -8.375 0.476562 -6.378906 0.476562 -4.125 C 0.476562 -1.859375 1.753906 0.117188 4.46875 0.117188 Z M 4.46875 0.117188 "/></g></g></g><g fill="#d9d9d9" fill-opacity="1"><g transform="translate(124.373951, 260.361819)"><g><path d="M 4.457031 0.117188 C 7.179688 0.117188 8.433594 -1.878906 8.433594 -4.125 C 8.433594 -6.367188 7.179688 -8.363281 4.457031 -8.363281 C 1.730469 -8.363281 0.476562 -6.367188 0.476562 -4.125 C 0.476562 -1.878906 1.730469 0.117188 4.457031 0.117188 Z M 4.457031 -1.195312 C 2.6875 -1.195312 2.042969 -2.566406 2.042969 -4.125 C 2.042969 -5.675781 2.6875 -7.046875 4.457031 -7.046875 C 6.222656 -7.046875 6.871094 -5.675781 6.871094 -4.125 C 6.871094 -2.566406 6.222656 -1.195312 4.457031 -1.195312 Z M 4.457031 -1.195312 "/></g></g></g><g fill="#d9d9d9" fill-opacity="1"><g transform="translate(137.824087, 260.361819)"><g><path d="M 1.0625 0 L 2.484375 0 L 2.484375 -5.78125 L 5.9375 0 L 7.417969 0 L 7.417969 -8.242188 L 5.996094 -8.242188 L 5.996094 -2.472656 L 2.53125 -8.242188 L 1.0625 -8.242188 Z M 1.0625 0 "/></g></g></g><g fill="#d9d9d9" fill-opacity="1"><g transform="translate(150.842666, 260.361819)"><g><path d="M 3.417969 0.09375 C 4.992188 0.09375 6.28125 -0.84375 6.28125 -2.402344 C 6.28125 -5.136719 2.292969 -4.613281 2.292969 -6.164062 C 2.292969 -6.6875 2.746094 -7.046875 3.328125 -7.046875 C 3.882812 -7.046875 4.375 -6.722656 4.660156 -6.164062 L 5.890625 -6.917969 C 5.324219 -7.917969 4.398438 -8.363281 3.382812 -8.363281 C 1.996094 -8.363281 0.8125 -7.546875 0.8125 -6.089844 C 0.8125 -3.40625 4.800781 -3.976562 4.800781 -2.269531 C 4.800781 -1.683594 4.320312 -1.21875 3.441406 -1.21875 C 2.566406 -1.21875 1.835938 -1.671875 1.730469 -2.699219 L 0.261719 -2.328125 C 0.523438 -0.707031 1.960938 0.09375 3.417969 0.09375 Z M 3.417969 0.09375 "/></g></g></g><g fill="#d9d9d9" fill-opacity="1"><g transform="translate(162.01256, 260.361819)"><g><path d="M 2.699219 0 L 4.179688 0 L 4.179688 -6.917969 L 6.757812 -6.917969 L 6.757812 -8.242188 L 0.117188 -8.242188 L 0.117188 -6.917969 L 2.699219 -6.917969 Z M 2.699219 0 "/></g></g></g><g fill="#d9d9d9" fill-opacity="1"><g transform="translate(173.43322, 260.361819)"><g><path d="M 1.0625 0.0117188 L 2.542969 0.0117188 L 2.542969 -3.523438 L 3.535156 -3.523438 L 5.5625 0.0117188 L 7.261719 0.0117188 L 4.96875 -3.667969 C 5.902344 -3.988281 6.578125 -4.777344 6.578125 -5.8125 C 6.578125 -7.359375 5.265625 -8.242188 3.726562 -8.242188 L 1.0625 -8.242188 Z M 2.554688 -4.730469 L 2.554688 -6.917969 L 3.738281 -6.917969 C 4.582031 -6.917969 5.113281 -6.472656 5.113281 -5.792969 C 5.113281 -5.171875 4.648438 -4.765625 3.859375 -4.730469 Z M 2.554688 -4.730469 "/></g></g></g><g fill="#d9d9d9" fill-opacity="1"><g transform="translate(185.367081, 260.361819)"><g><path d="M 4.023438 0.117188 C 6.234375 0.117188 7.179688 -1.195312 7.179688 -3.273438 L 7.179688 -8.242188 L 5.699219 -8.242188 L 5.699219 -3.382812 C 5.699219 -2.054688 5.355469 -1.3125 4.023438 -1.3125 C 2.699219 -1.3125 2.351562 -2.054688 2.351562 -3.382812 L 2.351562 -8.242188 L 0.875 -8.242188 L 0.875 -3.214844 C 0.875 -1.195312 1.8125 0.117188 4.023438 0.117188 Z M 4.023438 0.117188 "/></g></g></g><g fill="#d9d9d9" fill-opacity="1"><g transform="translate(197.954107, 260.361819)"><g><path d="M 4.46875 0.117188 C 6.105469 0.117188 7.417969 -0.71875 8.070312 -2.257812 L 6.699219 -2.816406 C 6.257812 -1.707031 5.527344 -1.289062 4.46875 -1.289062 C 2.699219 -1.289062 1.949219 -2.542969 1.949219 -4.179688 C 1.949219 -5.710938 2.699219 -6.964844 4.445312 -6.964844 C 5.515625 -6.964844 6.367188 -6.542969 6.675781 -5.457031 L 8.058594 -6.007812 C 7.394531 -7.546875 6.089844 -8.375 4.457031 -8.375 C 1.742188 -8.375 0.476562 -6.378906 0.476562 -4.125 C 0.476562 -1.859375 1.753906 0.117188 4.46875 0.117188 Z M 4.46875 0.117188 "/></g></g></g><g fill="#d9d9d9" fill-opacity="1"><g transform="translate(210.844389, 260.361819)"><g><path d="M 2.699219 0 L 4.179688 0 L 4.179688 -6.917969 L 6.757812 -6.917969 L 6.757812 -8.242188 L 0.117188 -8.242188 L 0.117188 -6.917969 L 2.699219 -6.917969 Z M 2.699219 0 "/></g></g></g><g fill="#d9d9d9" fill-opacity="1"><g transform="translate(222.265043, 260.361819)"><g><path d="M 1.0625 0 L 2.542969 0 L 2.542969 -8.242188 L 1.0625 -8.242188 Z M 1.0625 0 "/></g></g></g><g fill="#d9d9d9" fill-opacity="1"><g transform="translate(230.408214, 260.361819)"><g><path d="M 4.457031 0.117188 C 7.179688 0.117188 8.433594 -1.878906 8.433594 -4.125 C 8.433594 -6.367188 7.179688 -8.363281 4.457031 -8.363281 C 1.730469 -8.363281 0.476562 -6.367188 0.476562 -4.125 C 0.476562 -1.878906 1.730469 0.117188 4.457031 0.117188 Z M 4.457031 -1.195312 C 2.6875 -1.195312 2.042969 -2.566406 2.042969 -4.125 C 2.042969 -5.675781 2.6875 -7.046875 4.457031 -7.046875 C 6.222656 -7.046875 6.871094 -5.675781 6.871094 -4.125 C 6.871094 -2.566406 6.222656 -1.195312 4.457031 -1.195312 Z M 4.457031 -1.195312 "/></g></g></g><g fill="#d9d9d9" fill-opacity="1"><g transform="translate(243.858346, 260.361819)"><g><path d="M 1.0625 0 L 2.484375 0 L 2.484375 -5.78125 L 5.9375 0 L 7.417969 0 L 7.417969 -8.242188 L 5.996094 -8.242188 L 5.996094 -2.472656 L 2.53125 -8.242188 L 1.0625 -8.242188 Z M 1.0625 0 "/></g></g></g><g fill="#d9d9d9" fill-opacity="1"><g transform="translate(256.876927, 260.361819)"><g><path d="M 3.417969 0.09375 C 4.992188 0.09375 6.28125 -0.84375 6.28125 -2.402344 C 6.28125 -5.136719 2.292969 -4.613281 2.292969 -6.164062 C 2.292969 -6.6875 2.746094 -7.046875 3.328125 -7.046875 C 3.882812 -7.046875 4.375 -6.722656 4.660156 -6.164062 L 5.890625 -6.917969 C 5.324219 -7.917969 4.398438 -8.363281 3.382812 -8.363281 C 1.996094 -8.363281 0.8125 -7.546875 0.8125 -6.089844 C 0.8125 -3.40625 4.800781 -3.976562 4.800781 -2.269531 C 4.800781 -1.683594 4.320312 -1.21875 3.441406 -1.21875 C 2.566406 -1.21875 1.835938 -1.671875 1.730469 -2.699219 L 0.261719 -2.328125 C 0.523438 -0.707031 1.960938 0.09375 3.417969 0.09375 Z M 3.417969 0.09375 "/></g></g></g></svg>