<?xml version="1.0" encoding="utf-8"?>
<svg viewBox="141.3483 269.6579 311.6696 12.7969" xmlns="http://www.w3.org/2000/svg">
  <g fill="#000000" fill-opacity="1" transform="matrix(1, 0, 0, 1, 104.24784851074219, 45.85702133178711)">
    <g transform="translate(35.502787, 236.421985)">
      <g>
        <path d="M 1.597656 0 L 3.742188 0 L 3.742188 -9.289062 L 6.820312 -1.082031 L 8.980469 -1.082031 L 12.058594 -9.289062 L 12.058594 0 L 14.203125 0 L 14.203125 -12.417969 L 11.195312 -12.417969 L 7.902344 -3.585938 L 4.605469 -12.417969 L 1.597656 -12.417969 Z M 1.597656 0 "/>
      </g>
    </g>
  </g>
  <g fill="#000000" fill-opacity="1" transform="matrix(1, 0, 0, 1, 104.24784851074219, 45.85702133178711)">
    <g transform="translate(54.383521, 236.421985)">
      <g>
        <path d="M 6.714844 0.175781 C 10.820312 0.175781 12.707031 -2.828125 12.707031 -6.214844 C 12.707031 -9.597656 10.820312 -12.601562 6.714844 -12.601562 C 2.609375 -12.601562 0.71875 -9.597656 0.71875 -6.214844 C 0.71875 -2.828125 2.609375 0.175781 6.714844 0.175781 Z M 6.714844 -1.800781 C 4.050781 -1.800781 3.074219 -3.867188 3.074219 -6.214844 C 3.074219 -8.550781 4.050781 -10.617188 6.714844 -10.617188 C 9.378906 -10.617188 10.351562 -8.550781 10.351562 -6.214844 C 10.351562 -3.867188 9.378906 -1.800781 6.714844 -1.800781 Z M 6.714844 -1.800781 "/>
      </g>
    </g>
  </g>
  <g fill="#000000" fill-opacity="1" transform="matrix(1, 0, 0, 1, 104.24784851074219, 45.85702133178711)">
    <g transform="translate(70.891207, 236.421985)">
      <g>
        <path d="M 1.597656 0.015625 L 3.832031 0.015625 L 3.832031 -5.308594 L 5.324219 -5.308594 L 8.382812 0.015625 L 10.941406 0.015625 L 7.488281 -5.527344 C 8.894531 -6.011719 9.914062 -7.199219 9.914062 -8.761719 C 9.914062 -11.089844 7.9375 -12.417969 5.617188 -12.417969 L 1.597656 -12.417969 Z M 3.847656 -7.128906 L 3.847656 -10.421875 L 5.632812 -10.421875 C 6.90625 -10.421875 7.707031 -9.753906 7.707031 -8.726562 C 7.707031 -7.796875 7.003906 -7.179688 5.816406 -7.128906 Z M 3.847656 -7.128906 "/>
      </g>
    </g>
  </g>
  <g fill="#000000" fill-opacity="1" transform="matrix(1, 0, 0, 1, 104.24784851074219, 45.85702133178711)">
    <g transform="translate(85.113735, 236.421985)">
      <g>
        <path d="M 1.597656 0.015625 L 3.832031 0.015625 L 3.832031 -5.308594 L 5.324219 -5.308594 L 8.382812 0.015625 L 10.941406 0.015625 L 7.488281 -5.527344 C 8.894531 -6.011719 9.914062 -7.199219 9.914062 -8.761719 C 9.914062 -11.089844 7.9375 -12.417969 5.617188 -12.417969 L 1.597656 -12.417969 Z M 3.847656 -7.128906 L 3.847656 -10.421875 L 5.632812 -10.421875 C 6.90625 -10.421875 7.707031 -9.753906 7.707031 -8.726562 C 7.707031 -7.796875 7.003906 -7.179688 5.816406 -7.128906 Z M 3.847656 -7.128906 "/>
      </g>
    </g>
  </g>
  <g fill="#000000" fill-opacity="1" transform="matrix(1, 0, 0, 1, 104.24784851074219, 45.85702133178711)">
    <g transform="translate(99.336268, 236.421985)">
      <g>
        <path d="M 0.105469 0 L 2.539062 0 L 3.507812 -2.699219 L 8.332031 -2.699219 L 9.289062 0 L 11.699219 0 L 6.75 -12.417969 L 5.078125 -12.417969 Z M 4.261719 -4.605469 L 5.921875 -9.140625 L 7.574219 -4.605469 Z M 4.261719 -4.605469 "/>
      </g>
    </g>
  </g>
  <g fill="#a6a6a6" fill-opacity="1" transform="matrix(1, 0, 0, 1, 104.24784851074219, 45.85702133178711)">
    <g transform="translate(120.19499, 236.421985)">
      <g>
        <path d="M 6.730469 0.175781 C 9.203125 0.175781 11.179688 -1.082031 12.164062 -3.402344 L 10.097656 -4.246094 C 9.429688 -2.574219 8.332031 -1.941406 6.730469 -1.941406 C 4.070312 -1.941406 2.933594 -3.832031 2.933594 -6.300781 C 2.933594 -8.605469 4.070312 -10.492188 6.695312 -10.492188 C 8.3125 -10.492188 9.597656 -9.859375 10.0625 -8.226562 L 12.144531 -9.050781 C 11.144531 -11.371094 9.175781 -12.621094 6.714844 -12.621094 C 2.628906 -12.621094 0.71875 -9.613281 0.71875 -6.214844 C 0.71875 -2.804688 2.644531 0.175781 6.730469 0.175781 Z M 6.730469 0.175781 "/>
      </g>
    </g>
  </g>
  <g fill="#a6a6a6" fill-opacity="1" transform="matrix(1, 0, 0, 1, 104.24784851074219, 45.85702133178711)">
    <g transform="translate(139.620925, 236.421985)">
      <g>
        <path d="M 6.714844 0.175781 C 10.820312 0.175781 12.707031 -2.828125 12.707031 -6.214844 C 12.707031 -9.597656 10.820312 -12.601562 6.714844 -12.601562 C 2.609375 -12.601562 0.71875 -9.597656 0.71875 -6.214844 C 0.71875 -2.828125 2.609375 0.175781 6.714844 0.175781 Z M 6.714844 -1.800781 C 4.050781 -1.800781 3.074219 -3.867188 3.074219 -6.214844 C 3.074219 -8.550781 4.050781 -10.617188 6.714844 -10.617188 C 9.378906 -10.617188 10.351562 -8.550781 10.351562 -6.214844 C 10.351562 -3.867188 9.378906 -1.800781 6.714844 -1.800781 Z M 6.714844 -1.800781 "/>
      </g>
    </g>
  </g>
  <g fill="#a6a6a6" fill-opacity="1" transform="matrix(1, 0, 0, 1, 104.24784851074219, 45.85702133178711)">
    <g transform="translate(159.890611, 236.421985)">
      <g>
        <path d="M 1.597656 0 L 3.742188 0 L 3.742188 -8.710938 L 8.945312 0 L 11.179688 0 L 11.179688 -12.417969 L 9.035156 -12.417969 L 9.035156 -3.726562 L 3.8125 -12.417969 L 1.597656 -12.417969 Z M 1.597656 0 "/>
      </g>
    </g>
  </g>
  <g fill="#a6a6a6" fill-opacity="1" transform="matrix(1, 0, 0, 1, 104.24784851074219, 45.85702133178711)">
    <g transform="translate(179.509908, 236.421985)">
      <g>
        <path d="M 5.148438 0.140625 C 7.523438 0.140625 9.464844 -1.273438 9.464844 -3.621094 C 9.464844 -7.742188 3.453125 -6.953125 3.453125 -9.289062 C 3.453125 -10.082031 4.140625 -10.617188 5.019531 -10.617188 C 5.851562 -10.617188 6.589844 -10.132812 7.023438 -9.289062 L 8.875 -10.421875 C 8.023438 -11.933594 6.625 -12.601562 5.097656 -12.601562 C 3.003906 -12.601562 1.222656 -11.371094 1.222656 -9.175781 C 1.222656 -5.132812 7.234375 -5.992188 7.234375 -3.417969 C 7.234375 -2.539062 6.511719 -1.835938 5.183594 -1.835938 C 3.867188 -1.835938 2.769531 -2.523438 2.609375 -4.070312 L 0.394531 -3.507812 C 0.789062 -1.0625 2.953125 0.140625 5.148438 0.140625 Z M 5.148438 0.140625 "/>
      </g>
    </g>
  </g>
  <g fill="#a6a6a6" fill-opacity="1" transform="matrix(1, 0, 0, 1, 104.24784851074219, 45.85702133178711)">
    <g transform="translate(196.343068, 236.421985)">
      <g>
        <path d="M 4.070312 0 L 6.300781 0 L 6.300781 -10.421875 L 10.1875 -10.421875 L 10.1875 -12.417969 L 0.175781 -12.417969 L 0.175781 -10.421875 L 4.070312 -10.421875 Z M 4.070312 0 "/>
      </g>
    </g>
  </g>
  <g fill="#a6a6a6" fill-opacity="1" transform="matrix(1, 0, 0, 1, 104.24784851074219, 45.85702133178711)">
    <g transform="translate(213.554156, 236.421985)">
      <g>
        <path d="M 1.597656 0.015625 L 3.832031 0.015625 L 3.832031 -5.308594 L 5.324219 -5.308594 L 8.382812 0.015625 L 10.941406 0.015625 L 7.488281 -5.527344 C 8.894531 -6.011719 9.914062 -7.199219 9.914062 -8.761719 C 9.914062 -11.089844 7.9375 -12.417969 5.617188 -12.417969 L 1.597656 -12.417969 Z M 3.847656 -7.128906 L 3.847656 -10.421875 L 5.632812 -10.421875 C 6.90625 -10.421875 7.707031 -9.753906 7.707031 -8.726562 C 7.707031 -7.796875 7.003906 -7.179688 5.816406 -7.128906 Z M 3.847656 -7.128906 "/>
      </g>
    </g>
  </g>
  <g fill="#a6a6a6" fill-opacity="1" transform="matrix(1, 0, 0, 1, 104.24784851074219, 45.85702133178711)">
    <g transform="translate(231.538683, 236.421985)">
      <g>
        <path d="M 6.0625 0.175781 C 9.394531 0.175781 10.820312 -1.800781 10.820312 -4.929688 L 10.820312 -12.417969 L 8.585938 -12.417969 L 8.585938 -5.097656 C 8.585938 -3.09375 8.066406 -1.976562 6.0625 -1.976562 C 4.070312 -1.976562 3.542969 -3.09375 3.542969 -5.097656 L 3.542969 -12.417969 L 1.316406 -12.417969 L 1.316406 -4.84375 C 1.316406 -1.800781 2.734375 0.175781 6.0625 0.175781 Z M 6.0625 0.175781 "/>
      </g>
    </g>
  </g>
  <g fill="#a6a6a6" fill-opacity="1" transform="matrix(1, 0, 0, 1, 104.24784851074219, 45.85702133178711)">
    <g transform="translate(250.507584, 236.421985)">
      <g>
        <path d="M 6.730469 0.175781 C 9.203125 0.175781 11.179688 -1.082031 12.164062 -3.402344 L 10.097656 -4.246094 C 9.429688 -2.574219 8.332031 -1.941406 6.730469 -1.941406 C 4.070312 -1.941406 2.933594 -3.832031 2.933594 -6.300781 C 2.933594 -8.605469 4.070312 -10.492188 6.695312 -10.492188 C 8.3125 -10.492188 9.597656 -9.859375 10.0625 -8.226562 L 12.144531 -9.050781 C 11.144531 -11.371094 9.175781 -12.621094 6.714844 -12.621094 C 2.628906 -12.621094 0.71875 -9.613281 0.71875 -6.214844 C 0.71875 -2.804688 2.644531 0.175781 6.730469 0.175781 Z M 6.730469 0.175781 "/>
      </g>
    </g>
  </g>
  <g fill="#a6a6a6" fill-opacity="1" transform="matrix(1, 0, 0, 1, 104.24784851074219, 45.85702133178711)">
    <g transform="translate(269.933517, 236.421985)">
      <g>
        <path d="M 4.070312 0 L 6.300781 0 L 6.300781 -10.421875 L 10.1875 -10.421875 L 10.1875 -12.417969 L 0.175781 -12.417969 L 0.175781 -10.421875 L 4.070312 -10.421875 Z M 4.070312 0 "/>
      </g>
    </g>
  </g>
  <g fill="#a6a6a6" fill-opacity="1" transform="matrix(1, 0, 0, 1, 104.24784851074219, 45.85702133178711)">
    <g transform="translate(287.144605, 236.421985)">
      <g>
        <path d="M 1.597656 0 L 3.832031 0 L 3.832031 -12.417969 L 1.597656 -12.417969 Z M 1.597656 0 "/>
      </g>
    </g>
  </g>
  <g fill="#a6a6a6" fill-opacity="1" transform="matrix(1, 0, 0, 1, 104.24784851074219, 45.85702133178711)">
    <g transform="translate(299.416242, 236.421985)">
      <g>
        <path d="M 6.714844 0.175781 C 10.820312 0.175781 12.707031 -2.828125 12.707031 -6.214844 C 12.707031 -9.597656 10.820312 -12.601562 6.714844 -12.601562 C 2.609375 -12.601562 0.71875 -9.597656 0.71875 -6.214844 C 0.71875 -2.828125 2.609375 0.175781 6.714844 0.175781 Z M 6.714844 -1.800781 C 4.050781 -1.800781 3.074219 -3.867188 3.074219 -6.214844 C 3.074219 -8.550781 4.050781 -10.617188 6.714844 -10.617188 C 9.378906 -10.617188 10.351562 -8.550781 10.351562 -6.214844 C 10.351562 -3.867188 9.378906 -1.800781 6.714844 -1.800781 Z M 6.714844 -1.800781 "/>
      </g>
    </g>
  </g>
  <g fill="#a6a6a6" fill-opacity="1" transform="matrix(1, 0, 0, 1, 104.24784851074219, 45.85702133178711)">
    <g transform="translate(319.685935, 236.421985)">
      <g>
        <path d="M 1.597656 0 L 3.742188 0 L 3.742188 -8.710938 L 8.945312 0 L 11.179688 0 L 11.179688 -12.417969 L 9.035156 -12.417969 L 9.035156 -3.726562 L 3.8125 -12.417969 L 1.597656 -12.417969 Z M 1.597656 0 "/>
      </g>
    </g>
  </g>
  <g fill="#a6a6a6" fill-opacity="1" transform="matrix(1, 0, 0, 1, 104.24784851074219, 45.85702133178711)">
    <g transform="translate(339.305227, 236.421985)">
      <g>
        <path d="M 5.148438 0.140625 C 7.523438 0.140625 9.464844 -1.273438 9.464844 -3.621094 C 9.464844 -7.742188 3.453125 -6.953125 3.453125 -9.289062 C 3.453125 -10.082031 4.140625 -10.617188 5.019531 -10.617188 C 5.851562 -10.617188 6.589844 -10.132812 7.023438 -9.289062 L 8.875 -10.421875 C 8.023438 -11.933594 6.625 -12.601562 5.097656 -12.601562 C 3.003906 -12.601562 1.222656 -11.371094 1.222656 -9.175781 C 1.222656 -5.132812 7.234375 -5.992188 7.234375 -3.417969 C 7.234375 -2.539062 6.511719 -1.835938 5.183594 -1.835938 C 3.867188 -1.835938 2.769531 -2.523438 2.609375 -4.070312 L 0.394531 -3.507812 C 0.789062 -1.0625 2.953125 0.140625 5.148438 0.140625 Z M 5.148438 0.140625 "/>
      </g>
    </g>
  </g>
</svg>