<?xml version="1.0" standalone="no"?>
<!DOCTYPE svg PUBLIC "-//W3C//DTD SVG 20010904//EN"
 "http://www.w3.org/TR/2001/REC-SVG-20010904/DTD/svg10.dtd">
<svg version="1.0" xmlns="http://www.w3.org/2000/svg"
 width="700.000000pt" height="700.000000pt" viewBox="0 0 700.000000 700.000000"
 preserveAspectRatio="xMidYMid meet">
<metadata>
Created by potrace 1.14, written by Peter Selinger 2001-2017
</metadata>
<g transform="translate(0.000000,700.000000) scale(0.100000,-0.100000)"
fill="#000000" stroke="none">
<path d="M0 3500 l0 -3500 3500 0 3500 0 0 3500 0 3500 -3500 0 -3500 0 0
-3500z m3516 2634 c450 -305 724 -493 742 -511 l22 -22 0 -578 0 -578 103 -57
c425 -235 574 -321 590 -339 16 -20 17 -58 17 -495 l0 -474 219 0 c186 0 222
-2 235 -16 23 -22 20 -80 -4 -104 -20 -20 -33 -20 -1980 -20 -1947 0 -1960 0
-1980 20 -30 30 -27 83 6 109 25 20 39 21 235 21 l209 0 0 729 c0 482 4 738
10 758 10 26 55 55 355 223 l345 192 0 303 c0 274 2 305 18 323 27 31 783 542
802 542 10 0 35 -12 56 -26z m1090 -3362 c21 -13 34 -52 28 -77 -14 -58 52
-55 -1176 -55 -1115 0 -1128 0 -1148 20 -24 24 -26 77 -3 102 15 17 64 18
1152 18 625 0 1141 -4 1147 -8z m-1577 -614 c49 -15 105 -70 132 -131 33 -73
35 -239 3 -308 -30 -64 -87 -116 -147 -134 -140 -42 -267 18 -316 149 -25 68
-28 188 -6 262 42 142 180 209 334 162z m-939 -170 c35 -101 67 -194 73 -208
8 -22 19 3 80 180 l72 205 63 3 62 3 0 -296 0 -295 -45 0 -45 0 -1 213 0 212
-66 -187 -66 -188 -46 0 -46 0 -53 158 c-85 249 -80 249 -81 5 l-1 -213 -45 0
-45 0 0 295 0 295 64 0 63 0 63 -182z m1606 153 c53 -30 84 -84 84 -145 0 -57
-18 -95 -64 -133 l-34 -28 69 -120 c37 -66 68 -123 69 -127 0 -5 -24 -8 -52
-8 l-53 0 -64 125 c-63 122 -65 125 -98 125 l-33 0 0 -125 0 -125 -45 0 -45 0
0 296 0 297 113 -5 c94 -3 119 -8 153 -27z m570 18 c86 -22 145 -111 129 -192
-9 -43 -50 -104 -75 -112 -11 -3 -20 -12 -20 -18 0 -7 31 -66 69 -132 l68
-120 -50 -3 c-27 -2 -53 0 -57 5 -5 4 -36 61 -70 126 -60 114 -63 117 -96 117
l-34 0 0 -125 0 -125 -45 0 -45 0 0 295 0 295 91 0 c49 0 110 -5 135 -11z
m710 -274 c57 -154 103 -286 103 -292 1 -9 -15 -13 -49 -13 l-49 0 -19 63 -18
62 -105 0 -104 0 -21 -60 -21 -60 -53 -3 c-40 -2 -51 0 -48 10 3 7 51 140 108
296 l103 283 35 -3 36 -3 102 -280z m-3736 -650 c27 -14 60 -51 60 -66 0 -18
-37 -13 -57 8 -30 31 -77 30 -110 -3 -23 -23 -25 -31 -21 -81 8 -89 65 -120
126 -68 27 23 62 26 62 5 0 -20 -45 -60 -77 -69 -121 -34 -202 105 -136 232
25 50 99 70 153 42z m410 2 c90 -45 95 -221 8 -268 -13 -7 -42 -12 -66 -12
-100 0 -152 127 -95 236 24 48 101 70 153 44z m804 -8 c14 -11 26 -24 26 -29
0 -14 -32 -21 -46 -9 -22 18 -59 7 -62 -19 -3 -18 5 -26 40 -42 73 -32 96 -71
74 -125 -17 -39 -62 -57 -111 -43 -31 8 -65 41 -65 63 0 26 32 26 52 0 22 -28
59 -33 78 -10 19 23 3 51 -40 70 -52 24 -73 49 -73 87 0 22 8 38 27 55 34 28
65 29 100 2z m1531 7 c48 -20 71 -68 39 -80 -10 -4 -23 3 -36 19 -40 51 -118
22 -131 -49 -17 -96 68 -162 129 -101 17 17 32 24 45 20 17 -6 18 -9 5 -34
-28 -52 -116 -73 -169 -38 -78 51 -74 208 5 257 39 24 66 25 113 6z m1052 -11
c55 -37 70 -164 26 -223 -29 -40 -86 -56 -137 -40 -106 34 -114 228 -11 274
35 17 87 12 122 -11z m787 4 c14 -11 26 -24 26 -29 0 -14 -32 -21 -46 -9 -21
17 -59 7 -62 -18 -3 -17 6 -27 40 -44 65 -32 78 -48 78 -89 0 -69 -82 -107
-144 -66 -30 19 -43 55 -25 67 21 13 27 11 34 -11 11 -36 78 -39 91 -5 8 21
-18 48 -66 70 -49 22 -68 62 -51 104 22 51 80 65 125 30z m-3809 -81 l50 -91
3 91 c3 90 3 92 27 92 l25 0 0 -140 0 -140 -24 0 c-21 0 -33 15 -78 98 l-53
97 -3 -97 c-2 -90 -4 -98 -22 -98 -19 0 -20 8 -20 140 0 139 0 140 23 140 18
0 32 -17 72 -92z m855 72 c0 -17 -7 -20 -45 -20 l-45 0 0 -120 c0 -113 -1
-120 -20 -120 -19 0 -20 7 -20 120 l0 120 -40 0 c-33 0 -40 3 -40 20 0 19 7
20 105 20 98 0 105 -1 105 -20z m324 -1 c34 -27 36 -80 3 -113 l-24 -24 34
-61 35 -61 -26 0 c-21 0 -31 10 -56 60 -22 43 -36 60 -50 60 -18 0 -20 -7 -20
-60 0 -53 -2 -60 -20 -60 -19 0 -20 7 -20 140 l0 140 59 0 c44 0 65 -5 85 -21z
m276 -83 c0 -82 3 -108 16 -120 19 -20 44 -20 69 -2 15 11 19 31 23 120 4 95
7 106 23 106 17 0 19 -9 19 -105 0 -125 -13 -159 -64 -173 -45 -13 -80 -5
-108 25 -21 22 -23 36 -27 139 l-3 114 26 0 26 0 0 -104z m950 85 c0 -16 -8
-20 -42 -23 l-43 -3 -3 -117 c-2 -110 -4 -118 -22 -118 -19 0 -20 7 -20 120
l0 120 -40 0 c-33 0 -40 3 -40 20 0 19 7 20 105 20 97 0 105 -1 105 -19z m230
-121 l0 -140 -25 0 -25 0 0 140 0 140 25 0 25 0 0 -140z m737 42 l53 -97 0 98
c0 97 0 97 25 97 l25 0 0 -141 0 -140 -26 3 c-22 2 -35 19 -78 97 l-51 94 -3
-97 c-2 -88 -4 -96 -22 -96 -19 0 -20 8 -20 140 0 139 0 140 23 140 18 0 32
-19 74 -98z"/>
<path d="M3532 5818 l3 -133 290 -198 c160 -109 298 -203 308 -208 16 -9 17 0
17 123 l0 133 -301 205 c-166 113 -305 207 -310 208 -6 2 -8 -52 -7 -130z"/>
<path d="M3530 5386 l0 -135 138 -94 c75 -51 215 -146 310 -211 l172 -117 0
134 0 134 -177 121 c-98 66 -238 161 -310 211 l-133 91 0 -134z"/>
<path d="M2916 5424 c-9 -8 -16 -28 -16 -44 0 -52 19 -60 150 -60 131 0 150 8
150 60 0 52 -19 60 -150 60 -94 0 -122 -3 -134 -16z"/>
<path d="M2916 5134 c-22 -21 -20 -67 2 -87 24 -22 238 -25 267 -3 21 15 25
67 5 90 -19 23 -251 23 -274 0z"/>
<path d="M3530 4947 l0 -134 310 -211 310 -211 0 134 0 134 -247 169 c-137 93
-276 188 -310 211 l-63 42 0 -134z"/>
<path d="M2917 4842 c-22 -24 -21 -65 1 -85 15 -14 41 -17 135 -17 104 0 119
2 137 20 24 24 25 48 4 78 -14 21 -22 22 -138 22 -106 0 -125 -2 -139 -18z"/>
<path d="M2347 4667 l-287 -160 2 -711 3 -711 283 -3 c221 -2 284 0 287 10 3
7 4 401 3 874 l-3 862 -288 -161z m153 -86 c14 -27 14 -1345 0 -1372 -7 -12
-21 -19 -40 -19 -19 0 -33 7 -40 19 -13 26 -14 1329 0 1365 12 33 64 37 80 7z
m-232 -217 l22 -15 0 -560 c0 -367 -4 -567 -10 -580 -15 -27 -56 -24 -75 5
-14 20 -15 91 -13 580 3 539 4 558 22 572 25 18 27 17 54 -2z"/>
<path d="M3530 4508 l1 -133 300 -205 c165 -113 305 -206 310 -208 5 -2 9 53
9 130 l-1 133 -280 190 c-155 105 -294 198 -310 208 l-29 19 0 -134z"/>
<path d="M2917 4552 c-22 -24 -22 -54 1 -81 16 -20 24 -22 142 -19 124 3 124
3 140 31 13 24 13 30 0 55 -16 27 -16 27 -141 30 -112 2 -127 1 -142 -16z"/>
<path d="M2916 4258 c-21 -30 -20 -61 3 -82 15 -14 37 -16 142 -14 123 3 123
3 139 31 13 24 13 30 0 55 -16 27 -16 27 -142 30 -121 2 -127 2 -142 -20z"/>
<path d="M4282 3683 l3 -598 285 0 285 0 0 439 0 439 -284 159 c-155 87 -285
158 -287 158 -2 0 -3 -269 -2 -597z m218 368 c6 -13 10 -163 10 -421 0 -258
-4 -408 -10 -421 -7 -12 -21 -19 -40 -19 -19 0 -33 7 -40 19 -6 13 -10 163
-10 421 0 258 4 408 10 421 7 12 21 19 40 19 19 0 33 -7 40 -19z m210 -221
c19 -19 20 -33 20 -311 0 -181 -4 -298 -10 -310 -7 -12 -21 -19 -40 -19 -19 0
-33 7 -40 19 -6 12 -10 129 -10 310 0 278 1 292 20 311 11 11 25 20 30 20 6 0
19 -9 30 -20z"/>
<path d="M3532 4068 l3 -132 290 -198 c160 -110 298 -203 308 -209 16 -9 17 0
17 124 l0 133 -304 207 c-168 114 -307 207 -310 207 -4 0 -5 -59 -4 -132z"/>
<path d="M2916 3968 c-9 -12 -16 -29 -16 -38 0 -9 7 -26 16 -38 14 -21 22 -22
138 -22 135 0 156 8 156 62 0 49 -25 58 -158 58 -114 0 -122 -1 -136 -22z"/>
<path d="M3530 3635 l0 -134 188 -127 c103 -70 242 -165 310 -212 l122 -83 0
134 0 134 -152 104 c-84 57 -224 152 -310 211 l-158 108 0 -135z"/>
<path d="M2920 3680 c-24 -24 -25 -48 -4 -78 14 -21 22 -22 138 -22 135 0 156
8 156 62 0 48 -25 58 -153 58 -104 0 -119 -2 -137 -20z"/>
<path d="M2929 3400 c-25 -15 -32 -58 -14 -86 15 -23 20 -24 140 -24 136 0
155 7 155 59 0 51 -24 61 -151 61 -63 0 -121 -5 -130 -10z"/>
<path d="M3530 3211 l0 -121 177 0 c97 0 173 4 168 8 -10 8 -307 210 -332 226
-10 6 -13 -20 -13 -113z"/>
<path d="M2867 2066 c-66 -36 -92 -105 -85 -220 8 -118 60 -179 153 -179 90 0
144 64 153 181 6 85 -11 144 -52 189 -28 31 -40 37 -87 40 -36 3 -63 -1 -82
-11z"/>
<path d="M3520 1995 l0 -75 64 0 c58 0 67 3 85 26 28 35 26 69 -4 99 -20 21
-34 25 -85 25 l-60 0 0 -75z"/>
<path d="M4140 1995 l0 -75 60 0 c72 0 100 21 100 74 0 50 -37 76 -106 76
l-54 0 0 -75z"/>
<path d="M4806 1912 c-16 -48 -31 -93 -33 -99 -4 -10 13 -13 65 -13 l71 0 -31
93 c-17 50 -34 95 -37 99 -4 5 -20 -31 -35 -80z"/>
<path d="M1544 1179 c-14 -16 -19 -36 -19 -81 0 -51 4 -63 24 -79 49 -40 114
-12 124 54 6 42 -8 99 -29 114 -28 20 -78 16 -100 -8z"/>
<path d="M4911 1174 c-15 -19 -21 -41 -21 -74 0 -63 28 -100 75 -100 24 0 39
7 54 26 33 42 26 141 -13 166 -26 18 -75 8 -95 -18z"/>
<path d="M3094 1186 c-12 -32 0 -61 27 -64 25 -3 59 19 59 38 0 32 -75 55 -86
26z"/>
</g>
</svg>
