<?xml version="1.0" standalone="no"?>
<!DOCTYPE svg PUBLIC "-//W3C//DTD SVG 20010904//EN"
 "http://www.w3.org/TR/2001/REC-SVG-20010904/DTD/svg10.dtd">
<svg version="1.0" xmlns="http://www.w3.org/2000/svg"
 width="960.000000pt" height="960.000000pt" viewBox="0 0 960.000000 960.000000"
 preserveAspectRatio="xMidYMid meet">
<metadata>
Created by potrace 1.14, written by Peter Selinger 2001-2017
</metadata>
<g transform="translate(0.000000,960.000000) scale(0.100000,-0.100000)"
fill="#000000" stroke="none">
<path d="M4520 9203 c-91 -8 -298 -44 -400 -70 -441 -109 -837 -311 -1190
-607 -81 -68 -321 -318 -388 -405 -58 -76 -70 -97 -60 -107 16 -15 468 -274
478 -274 4 0 25 21 46 48 207 255 474 469 773 617 191 94 363 152 601 202 118
25 141 27 415 27 264 0 300 -2 405 -23 344 -69 612 -177 880 -355 340 -227
597 -520 787 -895 121 -241 194 -491 228 -786 39 -336 -8 -711 -131 -1035 -19
-52 -38 -103 -41 -112 -3 -10 -11 -18 -17 -18 -6 0 -63 40 -126 89 -63 49
-117 88 -119 86 -2 -3 -10 -44 -17 -92 -16 -103 -64 -405 -134 -841 -28 -172
-50 -318 -50 -324 0 -7 11 3 24 21 14 18 39 49 58 69 18 21 49 55 67 77 19 22
32 33 29 24 -6 -15 -3 -15 40 -1 26 8 63 17 82 19 19 2 44 8 55 13 11 5 61 21
110 36 50 15 96 31 103 37 8 6 12 6 12 -2 0 -7 7 -8 23 -1 12 5 49 16 82 25
54 15 141 47 220 81 17 7 78 33 136 58 59 25 112 46 119 46 6 0 10 4 8 9 -5
15 -273 218 -392 298 -111 76 -127 90 -108 102 35 22 185 333 222 459 10 37
30 105 44 152 14 47 29 107 32 134 6 45 8 48 21 30 12 -16 15 -17 23 -4 7 11
10 11 10 2 0 -8 7 -6 21 7 15 13 20 28 17 45 -3 17 -1 23 8 19 7 -2 14 -13 16
-24 2 -11 8 -20 13 -19 12 0 14 43 3 51 -5 3 -2 11 5 18 12 9 18 9 30 -3 17
-17 27 -11 27 16 0 12 4 16 12 12 7 -5 9 -1 6 13 -3 11 -2 38 2 59 7 37 8 36
10 -21 l3 -60 7 55 c14 95 11 360 -5 494 -76 651 -355 1227 -814 1687 -175
174 -252 239 -432 361 -345 235 -720 383 -1159 459 -104 18 -172 22 -405 24
-154 1 -300 1 -325 -2z"/>
<path d="M3370 6305 l0 -1535 270 0 270 0 0 1272 c0 699 3 1268 7 1264 9 -9
16 -41 192 -836 34 -151 77 -342 96 -425 18 -82 59 -265 90 -405 30 -140 67
-302 80 -360 14 -58 45 -195 68 -305 l44 -200 238 -3 c131 -1 242 1 246 5 8 8
18 48 133 518 89 368 172 709 266 1090 43 176 111 455 151 620 39 165 76 304
81 310 4 5 8 -561 8 -1265 l0 -1275 316 -3 c286 -2 316 -1 310 14 -3 8 -6 699
-6 1535 l0 1519 -475 0 -474 0 -12 -42 c-6 -24 -17 -63 -25 -88 -7 -25 -45
-171 -83 -325 -39 -154 -107 -419 -151 -590 -44 -170 -111 -428 -148 -572 -37
-145 -69 -263 -72 -263 -6 0 -34 114 -111 450 -28 124 -67 293 -85 375 -19 83
-55 240 -80 350 -25 110 -58 256 -74 325 -16 69 -43 181 -58 250 l-29 125
-491 3 -492 2 0 -1535z"/>
<path d="M2130 7408 c-87 -223 -142 -427 -174 -643 -20 -129 -39 -418 -32
-470 3 -22 6 -66 8 -98 l1 -59 45 7 c63 9 112 35 118 62 4 14 14 23 25 23 10
0 19 4 19 9 0 10 113 124 156 158 18 13 34 34 36 46 3 20 6 18 25 -13 12 -19
45 -73 75 -119 l53 -84 7 139 c15 314 61 546 159 813 21 55 22 65 9 73 -8 5
-78 45 -155 89 -77 45 -177 103 -223 130 -46 27 -89 49 -96 49 -7 0 -32 -51
-56 -112z"/>
<path d="M7431 5943 c0 -6 -4 -20 -7 -30 -5 -14 -4 -15 5 -7 7 7 11 20 8 30
-3 11 -5 14 -6 7z"/>
<path d="M2330 5620 c-298 -54 -296 -54 -291 -71 47 -188 154 -441 270 -642
100 -174 258 -389 381 -520 l48 -51 28 34 c16 19 67 80 114 135 47 56 103 123
125 149 22 27 45 54 50 60 52 59 55 44 -38 159 -165 203 -269 380 -360 608
-24 63 -49 128 -54 144 -7 22 -16 30 -34 32 -13 1 -121 -16 -239 -37z"/>
<path d="M3374 4198 c-93 -111 -174 -209 -181 -218 -10 -15 -4 -22 50 -57 34
-23 73 -46 87 -53 14 -7 27 -16 30 -20 3 -4 79 -43 170 -88 206 -100 372 -162
569 -212 84 -21 356 -70 392 -70 18 0 19 11 19 283 l0 283 -107 18 c-286 49
-560 153 -819 310 l-41 25 -169 -201z"/>
<path d="M2802 3187 c-177 -65 -189 -311 -20 -398 87 -45 216 -11 273 71 40
57 47 157 17 216 -53 102 -165 149 -270 111z"/>
<path d="M3315 3188 c-40 -14 -104 -75 -121 -115 -18 -42 -18 -134 0 -178 33
-79 107 -125 201 -125 124 0 215 94 215 223 0 44 -37 123 -72 152 -59 51 -151
68 -223 43z"/>
<path d="M5880 3134 c-47 -20 -72 -57 -78 -113 -3 -39 0 -50 21 -73 13 -14 44
-32 68 -39 61 -17 80 -36 72 -68 -19 -76 -109 -148 -223 -177 -61 -16 -70 -21
-70 -41 0 -20 5 -23 38 -23 100 0 214 52 299 136 52 51 64 70 82 128 12 38 21
80 21 95 0 83 -54 160 -125 180 -51 14 -62 13 -105 -5z"/>
<path d="M3062 2440 c-170 -31 -341 -140 -458 -291 -154 -200 -221 -520 -159
-752 87 -327 409 -504 832 -457 184 20 300 74 418 194 138 140 193 292 182
500 -14 260 -94 460 -244 612 -82 82 -169 135 -276 169 -88 28 -215 39 -295
25z m187 -356 c102 -51 178 -186 200 -356 26 -197 -25 -335 -145 -394 -50 -24
-70 -28 -143 -28 -149 0 -242 47 -295 148 -28 53 -31 70 -34 165 -6 179 38
314 134 407 88 86 186 106 283 58z"/>
<path d="M6270 2340 c-144 -39 -252 -111 -366 -245 -117 -137 -196 -284 -275
-515 -58 -168 -87 -213 -162 -252 -37 -18 -60 -20 -281 -21 l-241 -2 -3 517
-2 517 -218 -2 -217 -2 -6 -680 c-6 -726 -5 -721 -57 -820 -21 -41 -87 -109
-134 -138 -41 -25 -124 -57 -203 -76 -83 -21 -78 1 -44 -229 27 -185 14 -171
137 -146 383 79 601 253 687 546 14 46 25 93 25 105 0 12 4 24 8 27 5 3 141 7
303 9 317 5 358 10 458 61 29 15 81 54 114 87 34 32 63 59 64 59 2 0 32 -23
67 -50 74 -58 200 -120 301 -146 101 -27 393 -27 480 0 171 53 319 175 394
324 59 116 76 194 75 337 -1 154 -15 219 -79 350 -70 144 -166 247 -296 319
-109 60 -178 77 -324 82 -108 3 -142 1 -205 -16z m258 -353 c96 -40 183 -144
222 -266 57 -179 -17 -362 -168 -416 -64 -23 -216 -31 -294 -15 -106 20 -285
91 -302 118 -18 30 110 376 158 425 6 6 22 26 34 44 30 42 113 102 165 119 46
15 140 11 185 -9z"/>
</g>
</svg>
