<?xml version="1.0" encoding="utf-8"?>
<!-- Generator: Adobe Illustrator 25.1.0, SVG Export Plug-In . SVG Version: 6.00 Build 0)  -->
<svg version="1.1" id="Layer_1" xmlns="http://www.w3.org/2000/svg" xmlns:xlink="http://www.w3.org/1999/xlink" x="0px" y="0px"
	 viewBox="0 0 1000 1000" style="enable-background:new 0 0 1000 1000;" xml:space="preserve">
<style type="text/css">
	.st0{fill:#61AB04;}
	.st1{fill:#222222;}
</style>
<g>
	<g>
		<g>
			<g>
				<path class="st0" d="M586.46,428.16l-7-0.21v-13.68c0-44.01-35.81-79.82-79.82-79.82s-79.82,35.81-79.82,79.82v13.72l-7,0.34
					v-14.06c0-47.87,38.95-86.82,86.82-86.82c47.87,0,86.82,38.95,86.82,86.82V428.16z"/>
			</g>
			<g>
				<path class="st1" d="M532.54,494.17c-8.11-8.11-16.15-16.15-24.64-24.64c10.18-9.37,19.59-19.94,30.8-28
					c42.57-30.6,103.32-6.88,114.86,44.28c9.71,43.05-19.18,85.09-62.78,90.74c-23.86,3.09-44.85-3.91-62.01-20.82
					c-27.37-27-54.3-54.44-81.59-81.52c-11.5-11.4-25.53-14.64-40.77-9.59c-15.25,5.04-24.41,16.09-26.98,32.05
					c-2.77,17.15,6,33.93,21.4,41.76c15.37,7.82,33.81,5.03,46.13-7.12c6.82-6.73,13.48-13.61,20.05-20.26
					c8.26,8.26,16.28,16.27,24.53,24.52c-12.82,11.66-23.52,26.19-40.06,34.24c-44.05,21.44-97.17-5.46-105.74-53.74
					c-7.48-42.19,20.82-81.58,63.32-87.34c23.73-3.22,44.73,3.71,61.83,20.53c27.02,26.58,53.84,53.38,80.33,80.49
					c15.71,16.08,39.49,16.81,55.24,3.86c13.15-10.81,18.13-29.38,11.99-45.19c-6.42-16.5-22.18-26.79-39.42-25.89
					c-10.42,0.55-19.22,4.59-26.59,11.88C545.83,480.97,539.23,487.54,532.54,494.17z"/>
			</g>
		</g>
		<g>
			<circle class="st0" cx="581.11" cy="502.61" r="17.24"/>
		</g>
		<g>
			<circle class="st0" cx="418.44" cy="502.61" r="17.24"/>
		</g>
	</g>
	<g>
		<g>
			<path class="st1" d="M350.73,664.02c-4.12-3.36-6.17-8.03-6.17-14H359c0,1.94,0.75,3.44,2.26,4.52c1.51,1.08,3.66,1.61,6.46,1.61
				c2.64,0,4.68-0.44,6.13-1.33c1.45-0.89,2.18-2.11,2.18-3.67c0-1.51-0.79-2.62-2.38-3.35c-1.59-0.73-4.16-1.28-7.71-1.65
				c-7.37-0.81-12.68-2.77-15.94-5.89c-3.26-3.12-4.88-7.21-4.88-12.27c0-3.34,0.93-6.31,2.78-8.92c1.86-2.61,4.45-4.64,7.79-6.09
				c3.34-1.45,7.18-2.18,11.54-2.18s8.2,0.77,11.54,2.3c3.33,1.53,5.93,3.7,7.79,6.5c1.86,2.8,2.78,6.03,2.78,9.68h-14.2
				c0-1.78-0.69-3.16-2.06-4.16c-1.37-0.99-3.27-1.49-5.69-1.49s-4.29,0.43-5.61,1.29c-1.32,0.86-1.98,2.04-1.98,3.55
				c0,1.45,0.65,2.56,1.94,3.31c1.29,0.75,3.52,1.29,6.7,1.61c7.91,0.81,13.64,2.73,17.19,5.77c3.55,3.04,5.33,7.17,5.33,12.39
				c0,3.44-0.97,6.5-2.9,9.16c-1.94,2.66-4.66,4.72-8.15,6.17c-3.5,1.45-7.51,2.18-12.02,2.18
				C360.56,669.06,354.85,667.38,350.73,664.02z"/>
		</g>
		<g>
			<path class="st1" d="M448.5,611.68v56.49h-14.77v-22.44h-19.05v22.44h-14.77v-56.49h14.77v20.82h19.05v-20.82H448.5z"/>
		</g>
		<g>
			<path class="st1" d="M513.06,624.83c-2.53-4.41-6.04-7.85-10.53-10.33c-4.49-2.47-9.59-3.71-15.29-3.71s-10.8,1.24-15.29,3.71
				c-4.5,2.48-8.01,5.92-10.54,10.33c-2.53,4.42-3.79,9.45-3.79,15.1c0,5.64,1.26,10.68,3.79,15.09c2.53,4.41,6.04,7.85,10.54,10.33
				c4.49,2.47,9.59,3.71,15.29,3.71s10.8-1.24,15.29-3.71c4.49-2.48,8-5.92,10.53-10.33c2.53-4.41,3.8-9.45,3.8-15.09
				C516.86,634.28,515.59,629.25,513.06,624.83z M497.77,650.86c-2.66,2.77-6.17,4.16-10.53,4.16s-7.87-1.39-10.53-4.16
				c-2.67-2.77-4-6.42-4-10.93c0-4.58,1.33-8.24,4-10.98c2.66-2.74,6.17-4.12,10.53-4.12s7.87,1.39,10.53,4.16
				c2.66,2.77,4,6.42,4,10.94C501.77,644.44,500.43,648.09,497.77,650.86z"/>
			<path class="st0" d="M501.77,639.93c0,4.51-1.34,8.16-4,10.93c-2.66,2.77-6.17,4.16-10.53,4.16s-7.87-1.39-10.53-4.16
				c-2.67-2.77-4-6.42-4-10.93c0-4.58,1.33-8.24,4-10.98c2.66-2.74,6.17-4.12,10.53-4.12s7.87,1.39,10.53,4.16
				C500.43,631.76,501.77,635.41,501.77,639.93z"/>
		</g>
		<g>
			<path class="st1" d="M561.89,614.22c3.17,1.69,5.63,4.09,7.38,7.18c1.75,3.09,2.62,6.66,2.62,10.69c0,4.09-0.89,7.68-2.66,10.77
				c-1.78,3.09-4.26,5.49-7.47,7.18c-3.2,1.69-6.87,2.54-11.02,2.54h-10.01v15.58h-14.77v-56.49h24.78
				C555,611.68,558.71,612.53,561.89,614.22z M554.87,637.79c1.34-1.37,2.02-3.27,2.02-5.69c0-2.42-0.67-4.29-2.02-5.61
				c-1.35-1.32-3.2-1.98-5.57-1.98h-8.55v15.33h8.55C551.67,639.84,553.52,639.16,554.87,637.79z"/>
		</g>
		<g>
			<path class="st1" d="M594.49,611.68v56.49h-14.77v-56.49H594.49z"/>
		</g>
		<g>
			<path class="st1" d="M655.42,611.68v56.65h-5.97l-28.49-28.81l0.16,10.17v18.48H606.6v-56.73h5.97l28.57,27.92l-0.24-10.01
				v-17.67H655.42z"/>
		</g>
	</g>
</g>
</svg>
