<?xml version="1.0" encoding="utf-8"?>
<!-- Generator: Adobe Illustrator 25.1.0, SVG Export Plug-In . SVG Version: 6.00 Build 0)  -->
<svg version="1.1" id="Layer_1" xmlns="http://www.w3.org/2000/svg" xmlns:xlink="http://www.w3.org/1999/xlink" x="0px" y="0px"
	 viewBox="0 0 1000 1000" style="enable-background:new 0 0 1000 1000;" xml:space="preserve">
<style type="text/css">
	.st0{fill:#61AB04;}
	.st1{fill:#222222;}
</style>
<g>
	<g>
		<circle class="st0" cx="481.34" cy="500.14" r="15.34"/>
		<circle class="st0" cx="577.18" cy="500.14" r="15.34"/>
	</g>
	<g>
		<path class="st1" d="M421.89,517.17v-25.79c0-10.86-3-19.38-8.99-25.54c-5.99-6.16-13.58-9.24-22.77-9.24
			c-11.42,0-19.77,3.92-25.03,11.76v-43.01h-21.67v117.61h21.67V497.6c0-6.94,1.68-12.15,5.04-15.63c3.36-3.47,7.84-5.21,13.44-5.21
			c5.04,0,9.07,1.49,12.1,4.45c3.02,2.97,4.54,7.25,4.54,12.85v29.33c0,10.81,8.76,19.57,19.57,19.57h2.11h30.48
			C452.37,542.96,423.58,541.25,421.89,517.17z"/>
		<path class="st1" d="M323.67,493.21c-1.14-1.95-2.79-3.84-4.95-5.68c-2.17-1.84-4.09-3.3-5.76-4.38
			c-1.68-1.08-4.06-2.24-7.14-3.49c-3.08-1.24-5.52-2.16-7.3-2.76c-1.79-0.59-4.41-1.43-7.87-2.52c-8.44-2.6-14.15-5-17.13-7.22
			c-2.98-2.22-4.46-5.11-4.46-8.68c0-3.35,1.32-6.09,3.98-8.2c2.65-2.11,6.3-3.17,10.96-3.17c9.96,0,17.21,4.87,21.75,14.61
			l18.83-10.88c-3.9-8.01-9.33-14.26-16.31-18.75c-6.98-4.49-15.07-6.74-24.27-6.74c-10.28,0-19.07,3.06-26.38,9.17
			c-7.31,6.12-10.96,14.31-10.96,24.59c0,5.2,0.92,9.74,2.76,13.64c1.84,3.9,4.52,7.12,8.04,9.66c3.52,2.54,7.03,4.57,10.55,6.09
			c3.52,1.52,7.82,3.03,12.91,4.55c9.2,2.6,15.58,5.01,19.15,7.22c3.57,2.22,5.36,5.33,5.36,9.33c0,3.47-1.46,6.33-4.38,8.6
			c-2.92,2.27-7.52,3.41-13.8,3.41c-12.99,0-21.7-5.79-26.14-17.37l-19.15,11.2c3.14,8.66,8.55,15.5,16.23,20.54
			c7.68,5.03,17.15,7.55,28.41,7.55c12.23,0,22.16-3.08,29.79-9.25c7.63-6.17,11.44-14.5,11.44-25c0-3.25-0.41-6.25-1.22-9.01
			C325.78,497.51,324.81,495.16,323.67,493.21z"/>
		<path class="st1" d="M640.21,456.68h-2.11v0.01l-0.05-0.01h-30.48c0,0,28.79,1.67,30.48,25.2l0.05-0.17v61.25h21.67v-66.72
			C659.77,465.44,651.01,456.68,640.21,456.68z"/>
		<path class="st1" d="M749.07,465.92c-5.99-6.16-13.58-9.24-22.77-9.24c-11.43,0-19.77,3.92-25.03,11.76v-11.76H679.6v86.28h21.67
			v-47.11c0-6.94,1.68-12.15,5.04-15.63c3.36-3.47,7.84-5.21,13.44-5.21c5.04,0,9.07,1.49,12.1,4.45c3.02,2.97,4.54,7.25,4.54,12.85
			v50.63h21.67v-53.32C758.06,478.78,755.06,472.08,749.07,465.92z"/>
		<path class="st1" d="M646.33,425.35c-3.59,0-6.69,1.34-9.32,4.03c-2.63,2.69-3.95,5.83-3.95,9.41c0,3.59,1.32,6.69,3.95,9.33
			c2.63,2.63,5.74,3.95,9.32,3.95c3.7,0,6.86-1.32,9.49-3.95c2.63-2.63,3.95-5.74,3.95-9.33c0-3.58-1.32-6.72-3.95-9.41
			C653.19,426.7,650.03,425.35,646.33,425.35z"/>
		<path class="st1" d="M552.06,463.91c-6.59,4.74-12.12,10.96-18.11,16.47c4.99,4.99,9.72,9.72,14.49,14.49
			c3.93-3.9,7.81-7.76,11.71-11.61c4.34-4.29,9.51-6.66,15.64-6.98c10.14-0.53,19.41,5.52,23.18,15.22
			c3.62,9.3,0.69,20.22-7.05,26.58c-9.26,7.62-23.25,7.18-32.49-2.27c-15.58-15.94-31.35-31.71-47.24-47.34
			c-10.06-9.89-22.41-13.97-36.36-12.08c-24.99,3.39-41.64,26.55-37.24,51.37c5.04,28.4,36.28,44.21,62.18,31.61
			c9.73-4.73,16.02-13.28,23.56-20.14c-4.85-4.85-9.57-9.57-14.42-14.42c-3.86,3.91-7.78,7.96-11.79,11.91
			c-7.24,7.14-18.09,8.78-27.13,4.18c-9.06-4.61-14.21-14.48-12.58-24.56c1.52-9.39,6.9-15.88,15.87-18.85
			c8.96-2.97,17.22-1.07,23.98,5.64c16.05,15.92,31.89,32.06,47.99,47.94c10.09,9.95,22.44,14.07,36.47,12.25
			c25.64-3.32,42.63-28.05,36.92-53.37C612.83,459.86,577.1,445.91,552.06,463.91z"/>
		<polygon class="st1" points="526.77,574.65 547.64,574.65 547.64,543.27 526.77,520.61 		"/>
	</g>
</g>
</svg>
